# xmcd
#
# Track frame offsets:
#	150
#	17802
#	30235
#	46917
#	60335
#	75427
#	91140
#	105292
#	121150
#	133755
#	147570
#	163720
#	178222
#
# Disc length: 2593 seconds
#
# Revision: 1
# Processed by: cddbd v1.5.1PL0 Copyright (c) Steve Scherf et al.
# Submitted via: audiograbber 1.82.01
#
DISCID=9b0a1f0d
DTITLE=Grupo Rodeio - Campereadas
DYEAR=1999
DGENRE=Gaúcho
TTITLE0=Deus Gaúcho
TTITLE1=Carreteada Chimarrona
TTITLE2=Chasque Revoltoso
TTITLE3=Candonga das Candongueiras
TTITLE4=De Quem Nasceu Pra Camopanha
TTITLE5=O Sonho Acabou
TTITLE6=De Tranco e Vaneira
TTITLE7=Mais Um Gaúcho
TTITLE8=Herança de Tropeiro
TTITLE9=Madrugador
TTITLE10=Vida Na Fronteira
TTITLE11=Vaneira Madrinha
TTITLE12=Não Acredito
EXTD=
EXTT0=
EXTT1=
EXTT2=
EXTT3=
EXTT4=
EXTT5=
EXTT6=
EXTT7=
EXTT8=
EXTT9=
EXTT10=
EXTT11=
EXTT12=
PLAYORDER=
